<?xml version="1.0" encoding="UTF-8" standalone="no"?>
<!-- Created with Inkscape (http://www.inkscape.org/) -->
<svg
   xmlns:svg="http://www.w3.org/2000/svg"
   xmlns="http://www.w3.org/2000/svg"
   version="1.0"
   width="1200"
   height="768"
   id="svg1901">
  <defs
     id="defs1903" />
  <g
     transform="translate(337.85715,733.35211)"
     style="opacity:1"
     id="layer1">
    <rect
       width="1246.5282"
       height="834.38599"
       x="-18.182745"
       y="-40.122036"
       transform="translate(-337.85715,-733.35211)"
       style="opacity:1;fill:#ffffff;fill-opacity:1;fill-rule:evenodd;stroke:none;stroke-width:6;stroke-linecap:butt;stroke-linejoin:round;stroke-miterlimit:4;stroke-dasharray:12, 6, 3, 6;stroke-dashoffset:0;stroke-opacity:1"
       id="rect3197" />
    <path
       d="M 682.85712 375.14285 A 64.285713 64.285713 0 1 1  554.2857,375.14285 A 64.285713 64.285713 0 1 1  682.85712 375.14285 z"
       transform="translate(-334.28568,-732.63782)"
       style="opacity:1;fill:#ffd700;fill-opacity:1;fill-rule:evenodd;stroke:none;stroke-width:6;stroke-linecap:butt;stroke-linejoin:round;stroke-miterlimit:4;stroke-dasharray:12, 6, 3, 6;stroke-dashoffset:0;stroke-opacity:1"
       id="path2218" />
    <path
       d="M 543.74535,297.45961 L 596.07558,339.97859 L 571.80857,277.07049 L 608.43849,333.67937 L 604.79886,266.35129 L 622.14288,331.5088 L 639.48691,266.35129 L 635.84727,333.67937 L 672.4772,277.07049 L 648.21018,339.97858 L 700.54042,297.45961 L 658.02145,349.78984 L 720.92954,325.52283 L 664.32066,362.15275 L 731.64874,358.51312 L 666.49123,375.85715 L 731.64874,393.20117 L 664.32066,389.56154 L 720.92954,426.19146 L 658.02145,401.92445 L 700.54042,454.25468 L 648.21019,411.73571 L 672.4772,474.6438 L 635.84728,418.03493 L 639.48691,485.363 L 622.14289,420.20549 L 604.79886,485.363 L 608.43849,418.03493 L 571.80857,474.6438 L 596.07558,411.73571 L 543.74535,454.25468 L 586.26432,401.92445 L 523.35623,426.19146 L 579.9651,389.56154 L 512.63703,393.20117 L 577.79454,375.85715 L 512.63703,358.51313 L 579.9651,362.15276 L 523.35623,325.52283 L 586.26432,349.78985 L 543.74535,297.45961 z "
       transform="translate(-337.85715,-733.35211)"
       style="opacity:1;fill:#ffd700;fill-opacity:1;fill-rule:evenodd;stroke:none;stroke-width:6;stroke-linecap:butt;stroke-linejoin:round;stroke-miterlimit:4;stroke-dasharray:12, 6, 3, 6;stroke-dashoffset:0;stroke-opacity:1"
       id="path3191" />
    <path
       d="M 210.11173,-13.85807 L 1222.2846,608.3959 L 1232.3861,-46.182951 L 210.11173,-13.85807 z "
       transform="translate(-337.85715,-733.35211)"
       style="opacity:1;fill:#00923f;fill-opacity:1;fill-rule:evenodd;stroke:none;stroke-width:6;stroke-linecap:butt;stroke-linejoin:round;stroke-miterlimit:4;stroke-dasharray:12, 6, 3, 6;stroke-dashoffset:0;stroke-opacity:1"
       id="path3193" />
    <path
       d="M -24.243661,81.09627 L 1066.7211,782.14214 L -60.609153,806.3858 L -24.243661,81.09627 z "
       transform="translate(-337.85715,-733.35211)"
       style="opacity:1;fill:#da251d;fill-opacity:1;fill-rule:evenodd;stroke:none;stroke-width:6;stroke-linecap:butt;stroke-linejoin:round;stroke-miterlimit:4;stroke-dasharray:12, 6, 3, 6;stroke-dashoffset:0;stroke-opacity:1"
       id="path3195" />
  </g>
</svg>
